<svg width="814" height="944" viewBox="0 0 814 944" fill="none" xmlns="http://www.w3.org/2000/svg"><path d="M629.866 174.642c-48.971-88.146-143.19-82.922-248.991-46.055L325.442.744l-79.064 35.325 53.898 124.393c-20.787 9.295-41.847 19.192-62.822 29.05l-54.379-125.27-78.895 35.25 55.388 127.822c-16.957 7.996-33.652 15.817-50.024 23.137l-.255-.329L.244 298.698l36.028 83.224s57.898-27.181 57.405-25.688c32.014-14.298 50.376-.655 60.269 13.769l63.121 145.587a70.99 70.99 0 018.596-3.186c-2.639 1.183-5.461 2.424-8.456 3.772l88.457 204.031c2.899 10.535 3.84 29.005-18.526 39.051 1.384.428-57.482 25.664-57.482 25.664l24.918 99.828 102.801-45.874c19.158-8.534 38.143-16.629 56.678-24.791l56.041 129.175 78.993-35.27-55.469-127.924a3288.63 3288.63 0 0063.416-27.622L612.233 879.8l79.065-35.324-55.92-129.022c129.659-66.906 208.393-141.429 166.692-269.462-33.586-103.092-99.994-126.109-183.177-110.236 35.763-43.346 46.929-96.671 10.973-161.114zm9.289 325.872c41.958 96.606-130.904 160.722-184.523 184.616l-74.266-171.321c53.659-23.842 215.167-114.142 258.789-13.295zM497.557 275.246c38.104 87.923-106.54 140.294-151.156 160.242l-67.43-155.446c44.701-19.875 178.83-96.467 218.586-4.796z" fill="#F7931A" fill-opacity=".05"/></svg>