<svg width="814" height="944" viewBox="0 0 814 944" fill="none" xmlns="http://www.w3.org/2000/svg">
<path d="M629.866 174.642C580.895 86.496 486.676 91.72 380.875 128.587L325.442 0.744019L246.378 36.069L300.276 160.462C279.489 169.757 258.429 179.654 237.454 189.512L183.075 64.242L104.18 99.492L159.568 227.314C142.611 235.31 125.916 243.131 109.544 250.451L109.289 250.122L0.244019 298.698L36.272 381.922C36.272 381.922 94.17 354.741 93.677 356.234C125.691 341.936 144.053 355.579 153.946 370.003L217.067 515.59C219.863 514.343 222.734 513.279 225.663 512.404C223.024 513.587 220.202 514.828 217.207 516.176L305.664 720.207C308.563 730.742 309.504 749.212 287.138 759.258C288.522 759.686 229.656 784.922 229.656 784.922L254.574 884.75L357.375 838.876C376.533 830.342 395.518 822.247 414.053 814.085L470.094 943.26L549.087 907.99L493.618 780.066C515.492 770.817 536.551 761.616 557.034 752.444L612.233 879.8L691.298 844.476L635.378 715.454C765.037 648.548 843.771 574.025 802.07 445.992C768.484 342.9 702.076 319.883 618.893 335.756C654.656 292.41 665.822 239.085 629.866 174.642ZM639.155 500.514C681.113 597.12 508.251 661.236 454.632 685.13L380.366 513.809C434.025 489.967 595.533 399.667 639.155 500.514ZM497.557 275.246C535.661 363.169 391.017 415.54 346.401 435.488L278.971 280.042C323.672 260.167 457.801 183.575 497.557 275.246Z" fill="#F7931A" fill-opacity="0.05"/>
</svg>
